<svg width="159" height="40" viewBox="0 0 159 40" fill="none" xmlns="http://www.w3.org/2000/svg">
<path d="M157.06 31.608C157.06 32.568 157.188 33.272 157.444 33.72C157.732 34.168 158.18 34.504 158.788 34.728L157.204 39.672C155.636 39.544 154.356 39.208 153.364 38.664C152.372 38.088 151.604 37.192 151.06 35.976C149.396 38.536 146.836 39.816 143.38 39.816C140.852 39.816 138.836 39.08 137.332 37.608C135.828 36.136 135.076 34.216 135.076 31.848C135.076 29.064 136.1 26.936 138.148 25.464C140.196 23.992 143.156 23.256 147.028 23.256H149.62V22.152C149.62 20.648 149.3 19.624 148.66 19.08C148.02 18.504 146.9 18.216 145.3 18.216C144.468 18.216 143.46 18.344 142.276 18.6C141.092 18.824 139.876 19.144 138.628 19.56L136.9 14.568C138.5 13.96 140.132 13.496 141.796 13.176C143.492 12.856 145.06 12.696 146.5 12.696C150.148 12.696 152.82 13.448 154.516 14.952C156.212 16.456 157.06 18.712 157.06 21.72V31.608ZM145.588 34.392C147.316 34.392 148.66 33.576 149.62 31.944V27.432H147.748C146.02 27.432 144.724 27.736 143.86 28.344C143.028 28.952 142.612 29.896 142.612 31.176C142.612 32.2 142.868 33 143.38 33.576C143.924 34.12 144.66 34.392 145.588 34.392Z" fill="black"/>
<path d="M133.05 12.792C133.978 12.792 134.826 12.904 135.594 13.128L134.394 20.472C133.434 20.248 132.666 20.136 132.09 20.136C130.586 20.136 129.434 20.664 128.634 21.72C127.866 22.744 127.258 24.296 126.81 26.376V39H119.226V13.512H125.85L126.474 18.456C127.05 16.696 127.914 15.32 129.066 14.328C130.25 13.304 131.578 12.792 133.05 12.792Z" fill="black"/>
<path d="M113.263 13.512V39H105.679V13.512H113.263ZM109.423 0.071991C110.735 0.071991 111.807 0.487991 112.639 1.31999C113.503 2.11999 113.935 3.14399 113.935 4.39199C113.935 5.63999 113.503 6.67999 112.639 7.51199C111.807 8.31199 110.735 8.71199 109.423 8.71199C108.111 8.71199 107.039 8.31199 106.207 7.51199C105.375 6.67999 104.959 5.63999 104.959 4.39199C104.959 3.14399 105.375 2.11999 106.207 1.31999C107.039 0.487991 108.111 0.071991 109.423 0.071991Z" fill="black"/>
<path d="M101.419 25.752C101.419 26.808 101.371 27.72 101.275 28.488H85.4828C85.7388 30.632 86.3468 32.136 87.3068 33C88.2668 33.864 89.5948 34.296 91.2908 34.296C92.3148 34.296 93.3068 34.12 94.2668 33.768C95.2268 33.384 96.2668 32.808 97.3868 32.04L100.507 36.264C97.5308 38.632 94.2188 39.816 90.5708 39.816C86.4428 39.816 83.2748 38.6 81.0668 36.168C78.8588 33.736 77.7548 30.472 77.7548 26.376C77.7548 23.784 78.2188 21.464 79.1468 19.416C80.0748 17.336 81.4348 15.704 83.2268 14.52C85.0188 13.304 87.1628 12.696 89.6588 12.696C93.3388 12.696 96.2188 13.848 98.2988 16.152C100.379 18.456 101.419 21.656 101.419 25.752ZM93.9788 23.592C93.9148 19.688 92.5388 17.736 89.8508 17.736C88.5388 17.736 87.5148 18.216 86.7788 19.176C86.0748 20.136 85.6428 21.72 85.4828 23.928H93.9788V23.592Z" fill="black"/>
<path d="M73.2615 3.38399V39H66.5415L66.1575 36.024C64.3655 38.552 61.9495 39.816 58.9095 39.816C55.7415 39.816 53.3255 38.6 51.6615 36.168C50.0295 33.736 49.2135 30.408 49.2135 26.184C49.2135 23.592 49.6455 21.272 50.5095 19.224C51.3735 17.176 52.5895 15.576 54.1575 14.424C55.7575 13.272 57.5815 12.696 59.6295 12.696C62.0615 12.696 64.0775 13.496 65.6775 15.096V2.56799L73.2615 3.38399ZM61.2615 34.248C63.0215 34.248 64.4935 33.288 65.6775 31.368V20.376C65.0695 19.64 64.4455 19.096 63.8055 18.744C63.1975 18.392 62.4935 18.216 61.6935 18.216C60.2855 18.216 59.1655 18.872 58.3335 20.184C57.5015 21.496 57.0855 23.512 57.0855 26.232C57.0855 29.208 57.4375 31.288 58.1415 32.472C58.8775 33.656 59.9175 34.248 61.2615 34.248Z" fill="black"/>
<path d="M44.3726 31.608C44.3726 32.568 44.5006 33.272 44.7566 33.72C45.0446 34.168 45.4926 34.504 46.1006 34.728L44.5166 39.672C42.9486 39.544 41.6686 39.208 40.6766 38.664C39.6846 38.088 38.9166 37.192 38.3726 35.976C36.7086 38.536 34.1486 39.816 30.6926 39.816C28.1646 39.816 26.1486 39.08 24.6446 37.608C23.1406 36.136 22.3886 34.216 22.3886 31.848C22.3886 29.064 23.4126 26.936 25.4606 25.464C27.5086 23.992 30.4686 23.256 34.3406 23.256H36.9326V22.152C36.9326 20.648 36.6126 19.624 35.9726 19.08C35.3326 18.504 34.2126 18.216 32.6126 18.216C31.7806 18.216 30.7726 18.344 29.5886 18.6C28.4046 18.824 27.1886 19.144 25.9406 19.56L24.2126 14.568C25.8126 13.96 27.4446 13.496 29.1086 13.176C30.8046 12.856 32.3726 12.696 33.8126 12.696C37.4606 12.696 40.1326 13.448 41.8286 14.952C43.5246 16.456 44.3726 18.712 44.3726 21.72V31.608ZM32.9006 34.392C34.6286 34.392 35.9726 33.576 36.9326 31.944V27.432H35.0606C33.3326 27.432 32.0366 27.736 31.1726 28.344C30.3406 28.952 29.9246 29.896 29.9246 31.176C29.9246 32.2 30.1806 33 30.6926 33.576C31.2366 34.12 31.9726 34.392 32.9006 34.392Z" fill="black"/>
<path d="M7.992 5.73599V32.76H20.952L20.136 39H0.119995V5.73599H7.992Z" fill="black"/>
</svg>
